<svg width="400" height="400" viewBox="0 0 400 400" fill="none" xmlns="http://www.w3.org/2000/svg">
<rect x="2" y="2" width="396" height="396" rx="62" fill="#00B6D6"/>
<rect x="2" y="2" width="396" height="396" rx="62" stroke="#00B6D6" stroke-width="4" style="mix-blend-mode:multiply"/>
<g clip-path="url(#clip0_248_1630)">
<path d="M52.7051 156.661C49.5932 156.661 47 159.088 47 162.209C47 165.329 49.4203 167.929 52.5322 167.929C55.6441 167.929 58.2373 165.502 58.2373 162.382C58.2373 159.261 55.6441 156.661 52.7051 156.661ZM260.854 156.661C257.742 156.661 255.149 159.261 255.149 162.382C255.149 165.502 257.742 168.103 260.854 168.103C263.966 168.103 266.559 165.502 266.559 162.382C266.559 159.261 263.966 156.661 260.854 156.661ZM69.8203 158.395V166.369H243.739V158.395H69.8203ZM93.3322 180.064C87.1085 180.064 82.4407 183.705 79.6746 185.785L79.3288 186.132C78.6373 183.358 76.3898 181.451 73.6237 181.278H69.8203V225.137H79.6746V193.066C81.5763 192.026 86.0712 189.252 90.2203 189.252C95.7525 189.252 96.7898 192.199 96.7898 198.44V225.137H106.644V197.226C106.644 188.212 105.78 180.064 93.3322 180.064ZM230.427 180.064C224.203 180.064 219.536 183.705 216.769 185.785C216.597 185.958 216.597 185.958 216.424 186.132C215.732 183.358 213.485 181.451 210.719 181.278H206.915V225.137H216.769V193.066C218.671 192.026 223.166 189.252 227.315 189.252C232.847 189.252 233.885 192.199 233.885 198.44V225.137H243.739V197.226C243.739 188.212 242.875 180.064 230.427 180.064ZM296.295 180.238C283.329 180.238 275.203 189.079 275.203 202.947C275.203 219.416 281.427 226.004 297.851 226.004C301.308 226.004 304.766 225.484 308.224 224.617L306.841 216.469C304.075 216.989 301.308 217.336 298.542 217.509C287.824 217.509 285.403 213.175 285.403 203.121C285.403 192.893 290.244 188.905 296.468 188.905C299.753 188.905 302.864 189.599 305.803 190.812L308.569 183.011C304.766 180.931 300.444 179.891 296.295 180.238ZM333.81 180.238C321.708 180.238 313.583 188.905 313.583 203.641C313.583 217.683 320.671 226.177 333.119 226.177C344.875 226.177 353.691 218.376 353.691 203.294C353.691 188.559 347.295 180.238 333.81 180.238ZM181.675 180.238C170.264 180.238 161.793 186.132 161.793 203.987C161.793 221.15 169.919 226.004 182.712 226.004C187.553 226.177 192.393 225.484 197.061 224.27L195.505 216.122C191.875 216.816 188.244 217.162 184.441 217.162C177.18 217.162 171.647 215.776 171.475 206.241H198.098V202.427C198.098 188.559 193.43 180.238 181.675 180.238ZM136.725 180.584C125.142 180.584 115.461 188.559 115.461 203.467C115.461 223.403 125.834 225.83 135.169 225.83C138.108 225.83 140.702 224.79 142.949 222.883C142.949 223.75 142.949 224.443 142.949 225.31C142.949 233.111 138.627 234.151 132.058 234.151C127.908 233.978 123.759 233.458 119.783 232.418L118.227 240.739C123.241 242.299 128.427 242.993 133.614 242.993C142.258 242.993 152.63 238.485 152.63 226.35V182.318C147.444 181.278 142.085 180.758 136.725 180.584ZM47.6915 181.278V225.137H57.5458V181.278H47.6915ZM256.014 181.278V225.137H265.868V181.278H256.014ZM180.81 188.212C184.959 188.212 188.244 191.852 188.071 198.613H171.82C172.166 191.332 176.488 188.212 180.81 188.212ZM333.637 188.559C341.763 188.559 343.664 195.666 343.664 203.121C343.664 211.095 341.763 217.509 333.81 217.509C326.03 217.509 323.437 211.442 323.437 203.121C323.437 195.666 325.512 188.559 333.637 188.559ZM136.553 189.252C138.627 189.252 140.875 189.425 142.949 189.772V215.429C140.702 216.816 138.281 217.509 135.688 217.683C129.292 217.683 125.142 214.042 125.142 203.641C125.142 195.32 128.427 189.252 136.553 189.252Z" fill="white"/>
</g>
<defs>
<clipPath id="clip0_248_1630">
<rect width="306" height="86.6781" fill="white" transform="translate(47 156.661)"/>
</clipPath>
</defs>
</svg>
